<?xml version="1.0" encoding="utf-8"?>
<!-- Generator: Adobe Illustrator 15.0.2, SVG Export Plug-In . SVG Version: 6.00 Build 0)  -->
<!DOCTYPE svg PUBLIC "-//W3C//DTD SVG 1.1//EN" "http://www.w3.org/Graphics/SVG/1.1/DTD/svg11.dtd">
<svg version="1.1" id="Layer_1" xmlns="http://www.w3.org/2000/svg" xmlns:xlink="http://www.w3.org/1999/xlink" x="0px" y="0px"
	 width="600px" height="600px" viewBox="0 0 600 600" enable-background="new 0 0 600 600" xml:space="preserve">
<g>
	<path fill="#CC0000" d="M328.428,50.538c-15.619-15.493-41.178-15.493-56.797,0L48.904,271.465
		c-15.62,15.493-15.62,40.846,0,56.339L271.632,548.73c15.62,15.493,41.178,15.493,56.797,0l222.729-220.927
		c15.619-15.493,15.619-40.846,0-56.338L328.428,50.538z"/>
</g>
<g>
	<path fill="#FFFFFF" d="M157.755,249.306c-2.071-5.886-5.667-8.72-11.117-8.72c-5.014,0-8.938,3.488-8.938,7.848
		c0,2.507,1.417,4.795,3.815,6.104c2.071,1.09,2.071,1.09,11.117,4.251c6.213,2.071,11.008,4.469,13.951,6.866
		c4.033,3.27,6.431,8.938,6.431,14.932c0,7.412-3.27,14.061-9.155,18.42c-5.014,3.815-11.227,5.45-19.837,5.45
		c-8.284,0-14.169-1.526-19.401-5.014c-4.469-2.943-6.431-5.45-8.938-11.335l15.586-6.43c2.507,6.321,6.758,9.373,13.079,9.373
		c5.886,0,9.701-3.161,9.701-7.957c0-3.052-1.308-5.123-4.36-6.866c-2.398-1.417-2.398-1.417-10.245-3.815
		c-5.232-1.635-11.444-5.341-14.496-8.72c-3.052-3.27-5.014-8.719-5.014-13.515c0-5.995,2.725-11.771,7.193-15.695
		c4.687-4.033,11.335-6.104,19.837-6.104c13.515,0,21.363,4.25,25.286,13.951L157.755,249.306z"/>
	<path fill="#FFFFFF" d="M247.029,302.822h-18.202l-5.231-15.478h-25.613l-5.559,15.478h-16.785l27.249-72.699h19.292
		L247.029,302.822z M211.606,249.306l-9.374,25.831h17.875L211.606,249.306z"/>
	<path fill="#FFFFFF" d="M299.131,260.75v12.861h-26.268v29.211h-17.438v-72.699h44.688v13.515h-27.249v17.112H299.131z"/>
	<path fill="#FFFFFF" d="M355.701,259.66v12.861h-27.467v16.785h31.608v13.516h-49.047v-72.699h44.905v13.515h-27.467v16.022
		H355.701z"/>
	<path fill="#FFFFFF" d="M398.646,302.822h-17.438v-59.293h-19.729v-13.406h57.004v13.406h-19.837V302.822z"/>
	<path fill="#FFFFFF" d="M488.78,230.123l-25.723,42.398v30.301h-17.439v-29.646l-26.049-43.053h19.618l16.35,27.249l15.259-27.249
		H488.78z"/>
	<path fill="#FFFFFF" d="M213.787,353.75v12.861h-26.268v29.21H170.08v-72.698h44.688v13.515h-27.249v17.112H213.787z"/>
	<path fill="#FFFFFF" d="M242.891,395.821h-17.439v-72.698h17.439V395.821z"/>
	<path fill="#FFFFFF" d="M259.458,323.123h25.832c10.027,0,13.406,0.545,17.548,2.834c6.213,3.379,9.81,9.918,9.81,17.874
		c0,5.014-1.417,9.374-4.142,13.188c-2.071,2.834-3.924,4.359-8.284,6.866l18.093,31.936h-20.272l-14.605-28.774h-6.757v28.774
		h-17.222V323.123z M281.584,354.186h0.654c8.393,0,12.316-2.942,12.316-9.265c0-5.776-3.161-8.065-11.444-8.065h-2.616
		l-3.814,0.109v17.221H281.584z"/>
	<path fill="#FFFFFF" d="M363.332,342.306c-2.071-5.886-5.668-8.72-11.117-8.72c-5.014,0-8.938,3.488-8.938,7.848
		c0,2.507,1.417,4.796,3.814,6.104c2.07,1.09,2.07,1.09,11.117,4.251c6.213,2.07,11.009,4.469,13.951,6.866
		c4.033,3.27,6.431,8.938,6.431,14.933c0,7.411-3.27,14.06-9.155,18.42c-5.014,3.814-11.227,5.449-19.837,5.449
		c-8.283,0-14.169-1.525-19.401-5.014c-4.469-2.942-6.431-5.449-8.938-11.335l15.587-6.431c2.507,6.321,6.757,9.373,13.079,9.373
		c5.886,0,9.7-3.16,9.7-7.956c0-3.052-1.308-5.123-4.359-6.867c-2.398-1.417-2.398-1.417-10.246-3.814
		c-5.231-1.635-11.444-5.341-14.496-8.72c-3.052-3.27-5.014-8.72-5.014-13.515c0-5.995,2.725-11.771,7.193-15.695
		c4.688-4.033,11.336-6.104,19.837-6.104c13.516,0,21.363,4.25,25.287,13.951L363.332,342.306z"/>
	<path fill="#FFFFFF" d="M420.652,395.821h-17.438v-59.292h-19.729v-13.406h57.004v13.406h-19.837V395.821z"/>
</g>
<g display="none">
	<path display="inline" fill="#CC0000" d="M327.783,77.195c-15.557-15.556-41.012-15.556-56.568,0L76.79,271.621
		c-15.556,15.556-15.556,41.012,0,56.568l194.426,194.426c15.556,15.557,41.012,15.557,56.568,0l194.427-194.426
		c15.557-15.557,15.557-41.012,0-56.568L327.783,77.195z"/>
	<path display="inline" fill="none" stroke="#000000" stroke-miterlimit="10" d="M327.783,77.195
		c-15.557-15.556-41.012-15.556-56.568,0L76.79,271.621c-15.556,15.556-15.556,41.012,0,56.568l194.426,194.426
		c15.556,15.557,41.012,15.557,56.568,0l194.427-194.426c15.557-15.557,15.557-41.012,0-56.568L327.783,77.195z"/>
</g>
</svg>
